<?xml version="1.0" standalone="no"?>
<!DOCTYPE svg PUBLIC "-//W3C//DTD SVG 20010904//EN"
 "http://www.w3.org/TR/2001/REC-SVG-20010904/DTD/svg10.dtd">
<svg version="1.0" xmlns="http://www.w3.org/2000/svg"
 width="300.000000pt" height="300.000000pt" viewBox="0 0 300.000000 300.000000"
 preserveAspectRatio="xMidYMid meet">
<metadata>
Created by potrace 1.11, written by Peter Selinger 2001-2013
</metadata>
<g transform="translate(0.000000,300.000000) scale(0.100000,-0.100000)"
fill="#000000" stroke="none">
<path d="M983 2940 c-53 -11 -173 -59 -194 -76 -8 -8 -20 -14 -25 -14 -22 0
-146 -129 -179 -185 -94 -158 -100 -356 -17 -525 30 -60 189 -230 216 -230 9
0 16 -3 16 -8 0 -13 114 -61 185 -77 38 -9 72 -20 75 -25 11 -18 3 -645 -8
-667 -12 -21 -52 -36 -104 -38 -59 -2 -70 -50 -23 -99 l31 -33 185 2 c101 1
187 0 192 -2 4 -2 -8 -25 -25 -51 -39 -55 -68 -117 -68 -143 0 -10 -4 -20 -8
-23 -9 -6 -15 -58 -15 -146 0 -69 4 -97 23 -145 6 -16 11 -31 10 -33 -8 -14
85 -134 147 -192 154 -142 296 -191 533 -185 132 3 132 4 232 31 64 18 222 93
247 119 13 12 12 17 -5 36 -16 17 -19 37 -20 118 -1 53 3 104 7 113 5 9 23 19
40 23 53 12 58 63 10 109 l-27 26 -207 2 c-114 0 -209 -1 -212 -3 -2 -3 -6
-17 -9 -32 -8 -44 46 -97 103 -103 24 -2 46 -6 50 -8 3 -2 6 -55 6 -116 -1
-107 -2 -113 -25 -131 -71 -55 -283 -71 -385 -30 -131 54 -186 102 -239 214
-42 90 -52 191 -29 306 25 121 108 230 218 286 l56 28 23 -22 c51 -48 217 -79
257 -48 19 15 32 47 18 47 -6 0 -8 4 -5 9 8 12 24 9 63 -12 46 -24 71 -54 103
-119 28 -58 74 -121 83 -112 3 3 22 7 43 10 21 3 40 6 42 9 2 2 -3 34 -11 72
-9 37 -18 97 -22 133 -7 73 -30 105 -80 113 -42 7 -80 16 -152 37 -67 20 -151
33 -225 33 l-47 0 -67 96 c-108 154 -126 182 -123 184 2 2 21 12 43 22 61 32
122 91 150 146 21 44 25 63 22 123 -2 47 -10 85 -24 111 -24 48 -92 118 -147
153 -22 14 -56 42 -75 64 -41 43 -66 47 -103 17 -19 -14 -40 -20 -74 -19 -129
3 -518 -11 -526 -19 -5 -5 -10 -17 -12 -27 -2 -11 -4 -21 -4 -23 -2 -7 -42 42
-66 79 -49 77 -70 157 -70 275 0 130 4 150 47 233 44 87 151 180 227 197 9 2
30 8 46 13 72 21 207 -1 285 -46 55 -32 64 -42 100 -117 41 -88 81 -115 138
-94 22 8 23 13 18 63 -6 51 -9 68 -21 126 -2 14 -7 38 -9 54 -8 45 -33 74 -73
85 -21 5 -83 22 -138 36 -109 29 -313 42 -392 25z m602 -1034 c44 -44 46 -184
4 -252 -34 -56 -123 -91 -229 -90 l-55 1 -1 127 -1 126 66 25 c37 13 89 38
116 55 60 38 69 39 100 8z m-131 -509 c6 -7 36 -47 66 -90 30 -43 67 -94 83
-114 26 -34 36 -60 19 -49 -4 2 -45 -15 -92 -39 -79 -42 -85 -43 -102 -28 -11
9 -38 18 -61 20 -23 2 -46 8 -51 13 -6 6 -11 77 -12 160 -2 132 0 149 14 152
28 6 123 -12 136 -25z"/>
</g>
</svg>
